# Blender 3.5.0
# www.blender.org
mtllib float_R_arm.mtl
o right
v -0.088468 1.373515 0.244388
v -0.046227 1.401737 0.244388
v -0.130708 1.345293 0.244388
v -0.295074 1.447437 0.244388
v -0.158697 1.576362 0.244388
v -0.431451 1.318510 0.244388
v -0.427914 1.646262 0.244388
v -0.291537 1.775188 0.244388
v -0.564291 1.517336 0.244388
v -0.427914 1.646262 -0.181436
v -0.564291 1.517336 -0.181436
v -0.295074 1.447437 -0.181436
v -0.291537 1.775188 -0.181436
v -0.158697 1.576362 -0.181436
v -0.046227 1.401737 -0.181436
v -0.088468 1.373515 -0.181436
v -0.130708 1.345293 -0.181436
v -0.172948 1.317072 -0.181436
v -0.431450 1.318510 -0.181436
v -0.567827 1.189584 -0.181436
v -0.700667 1.388410 -0.181436
v -0.567827 1.189584 -0.181436
v -0.700667 1.388410 -0.181436
v -0.172948 1.317072 -0.181436
v -0.567827 1.189584 0.244388
v -0.567827 1.189584 0.244388
v -0.700667 1.388410 0.244388
v -0.172948 1.317072 0.244388
v -0.172948 1.317072 0.244388
v -0.700667 1.388410 0.244388
v -0.698421 1.402866 0.241318
v -0.953695 1.240360 0.241318
v -0.524879 1.207601 0.241318
v -0.698421 1.402866 -0.190225
v -0.953695 1.240360 -0.190225
v -0.524879 1.207601 -0.190225
v -0.691808 0.993035 -0.190225
v -0.691808 0.993035 0.241318
vn -0.0000 -0.0000 1.0000
vn 0.5555 -0.8315 -0.0000
vn -0.6870 0.7267 -0.0000
vn -0.0000 -0.0000 -1.0000
vn 0.8315 0.5555 -0.0000
vn -0.5555 0.8315 -0.0000
vn -0.8315 -0.5555 -0.0000
vn 0.3072 -0.9516 -0.0000
vn 0.5370 -0.8436 -0.0000
vn -0.7475 -0.6643 -0.0000
vn -0.7893 0.6140 -0.0000
vn 0.6866 0.7270 -0.0000
vn 0.8407 0.5415 -0.0000
vt 0.681684 0.742165
vt 0.827212 0.564550
vt 0.681684 0.747332
vt 0.822047 0.564550
vt 0.030735 0.771654
vt 0.832377 0.564550
vt 0.681684 0.736998
vt 0.674405 0.728869
vt 0.673107 0.747687
vt 0.039154 0.771654
vt 0.675704 0.710052
vt 0.664530 0.728869
vt 0.502366 0.368373
vt 0.663231 0.747687
vt 0.502366 0.387233
vt 0.048911 0.771654
vt 0.665828 0.710052
vt 0.502366 0.349514
vt 0.459543 0.368373
vt 0.742113 0.349471
vt 0.743411 0.368289
vt 0.459543 0.349514
vt 0.751989 0.349471
vt 0.459543 0.387233
vt 0.740814 0.330654
vt 0.048911 0.728832
vt 0.039154 0.728832
vt 0.750690 0.330654
vt 0.759267 0.331009
vt 0.822047 0.607372
vt 0.030735 0.728832
vt 0.827212 0.607372
vt 0.759267 0.336176
vt 0.030735 0.926466
vt 0.832377 0.607372
vt 0.759267 0.341343
vt 0.759267 0.346509
vt 0.030735 0.926466
vt 0.753287 0.368289
vt 0.754585 0.387106
vt 0.030735 0.926466
vt 0.459543 0.330654
vt 0.744710 0.387106
vt 0.030735 0.926466
vt 0.030735 0.926466
vt 0.672974 0.809157
vt 0.143013 0.587069
vt 0.030735 0.926466
vt 0.663231 0.809157
vt 0.837542 0.607372
vt 0.030735 0.926466
vt 0.183713 0.587069
vt 0.672974 0.851980
vt 0.143013 0.629892
vt 0.030735 0.926466
vt 0.030735 0.926466
vt 0.677002 0.691235
vt 0.663231 0.851980
vt 0.030735 0.926466
vt 0.183713 0.629892
vt 0.030735 0.926466
vt 0.837542 0.564550
vt 0.030735 0.926466
vt 0.681684 0.731831
vt 0.030735 0.926466
vt 0.667126 0.691235
vt 0.502366 0.330654
vt 0.594604 0.724895
vt 0.274139 0.863054
vt 0.847045 0.457339
vt 0.563837 0.724895
vt 0.274139 0.832283
vt 0.820738 0.330654
vt 0.263485 0.866793
vt 0.835906 0.457339
vt 0.769600 0.691235
vt 0.847045 0.500737
vt 0.594604 0.681497
vt 0.157441 0.813024
vt 0.157441 0.843795
vt 0.563837 0.681497
vt 0.820738 0.374052
vt 0.835906 0.500737
vt 0.146787 0.809285
vt 0.769600 0.734633
vt 0.743154 0.734633
vt 0.143013 0.835492
vt 0.836330 0.374052
vt 0.259711 0.840586
vt 0.743154 0.691235
vt 0.836330 0.330654
s 0
usemtl マテリアル.004
f 5/9/1 1/1/1 2/3/1
f 3/6/2 29/62/2 24/50/2
f 4/8/1 3/7/1 1/1/1
f 5/9/1 7/12/1 4/8/1
f 4/8/1 9/17/1 6/11/1
f 7/13/3 13/24/3 10/19/3
f 9/18/3 10/19/3 11/22/3
f 11/21/4 12/23/4 19/39/4
f 10/20/4 14/28/4 12/23/4
f 14/27/5 8/16/5 5/10/5
f 16/33/4 14/28/4 15/29/4
f 17/36/4 12/23/4 16/33/4
f 18/37/4 19/39/4 17/36/4
f 21/43/4 19/39/4 20/40/4
f 23/48/6 20/41/6 22/45/6
f 22/45/6 18/38/6 24/51/6
f 27/58/7 22/46/7 25/53/7
f 25/54/8 24/52/8 28/60/8
f 26/56/6 28/61/6 29/63/6
f 30/65/6 25/55/6 26/56/6
f 6/11/1 29/64/1 3/7/1
f 27/59/6 21/44/6 23/48/6
f 6/11/1 30/66/1 26/57/1
f 30/67/3 11/22/3 21/42/3
f 5/9/1 4/8/1 1/1/1
f 15/30/2 2/4/2 1/2/2
f 15/30/2 1/2/2 16/32/2
f 1/2/2 3/6/2 16/32/2
f 17/35/2 16/32/2 3/6/2
f 24/51/6 18/38/6 17/34/6
f 24/50/2 17/35/2 3/6/2
f 29/63/6 28/61/6 24/51/6
f 4/8/1 6/11/1 3/7/1
f 5/9/1 8/14/1 7/12/1
f 4/8/1 7/12/1 9/17/1
f 7/13/3 8/15/3 13/24/3
f 9/18/3 7/13/3 10/19/3
f 11/21/4 10/20/4 12/23/4
f 10/20/4 13/25/4 14/28/4
f 2/5/13 15/31/13 14/27/13
f 14/27/5 13/26/5 8/16/5
f 5/10/13 2/5/13 14/27/13
f 16/33/4 12/23/4 14/28/4
f 17/36/4 19/39/4 12/23/4
f 18/37/4 20/40/4 19/39/4
f 21/43/4 11/21/4 19/39/4
f 23/48/6 21/44/6 20/41/6
f 22/45/6 20/41/6 18/38/6
f 27/58/7 23/49/7 22/46/7
f 25/54/8 22/47/8 24/52/8
f 26/56/6 25/55/6 28/61/6
f 30/65/6 27/59/6 25/55/6
f 6/11/1 26/57/1 29/64/1
f 27/59/6 30/65/6 21/44/6
f 6/11/1 9/17/1 30/66/1
f 30/67/3 9/18/3 11/22/3
usemtl 
f 35/81/9 31/68/9 32/71/9
f 31/69/4 38/89/4 32/72/4
f 36/83/10 31/70/10 34/77/10
f 37/87/1 34/79/1 35/80/1
f 38/90/11 36/85/11 37/86/11
f 38/91/12 35/82/12 32/73/12
f 35/81/9 34/78/9 31/68/9
f 31/69/4 33/74/4 38/89/4
f 36/83/10 33/75/10 31/70/10
f 37/87/1 36/84/1 34/79/1
f 38/90/11 33/76/11 36/85/11
f 38/91/12 37/88/12 35/82/12
